<?xml version="1.0" standalone="no"?>
<!DOCTYPE svg PUBLIC "-//W3C//DTD SVG 20010904//EN"
 "http://www.w3.org/TR/2001/REC-SVG-20010904/DTD/svg10.dtd">
<svg version="1.0" xmlns="http://www.w3.org/2000/svg"
 width="500.000000pt" height="500.000000pt" viewBox="0 0 500.000000 500.000000"
 preserveAspectRatio="xMidYMid meet">

<g transform="translate(0.000000,500.000000) scale(0.100000,-0.100000)"
fill="#000000" stroke="none">
<path d="M4470 4851 c-36 -15 -109 -53 -162 -84 -54 -32 -100 -57 -103 -57 -2
0 -26 -13 -52 -29 -27 -15 -127 -72 -223 -126 -441 -247 -558 -316 -564 -330
-3 -9 3 -66 14 -128 11 -61 25 -140 30 -174 18 -107 80 -280 80 -221 0 11 -20
136 -36 218 -2 14 -14 85 -25 157 -24 150 -24 150 45 185 23 11 48 26 56 33 8
7 51 32 95 55 123 65 149 79 165 90 20 13 312 180 316 180 2 0 29 15 61 34 65
37 106 60 272 153 63 35 117 65 119 68 13 13 -30 2 -88 -24z"/>
<path d="M2820 4012 c-66 -29 -176 -99 -240 -155 -100 -86 -193 -243 -229
-386 -27 -107 -29 -288 -5 -394 19 -84 63 -180 101 -219 35 -37 50 -36 23 2
-83 116 -104 404 -45 604 51 171 139 312 264 419 73 62 133 104 187 132 67 34
25 32 -56 -3z"/>
<path d="M3852 3870 c-28 -17 -33 -25 -28 -48 5 -23 108 -687 121 -782 30
-211 47 -318 52 -335 3 -11 24 -47 47 -79 29 -42 42 -54 44 -42 2 10 -1 30 -6
44 -6 15 -13 59 -16 97 -4 39 -11 95 -16 125 -5 30 -16 105 -25 165 -9 61 -20
135 -26 165 -5 30 -25 170 -44 310 -19 140 -39 277 -45 303 -5 27 -10 59 -10
73 0 29 -6 30 -48 4z"/>
<path d="M2930 3550 c0 -4 11 -30 25 -58 14 -29 25 -58 25 -66 0 -10 14 -17
38 -21 52 -9 62 -13 62 -25 0 -5 -16 -10 -35 -10 -33 0 -215 -37 -223 -45 -2
-2 9 -10 25 -18 25 -12 39 -12 118 5 246 52 261 56 222 57 -47 1 -97 26 -97
48 0 22 -32 93 -42 93 -4 0 -8 7 -8 15 0 9 -12 20 -26 25 -27 11 -84 10 -84 0z"/>
<path d="M1655 3371 c-124 -42 -294 -150 -390 -247 -109 -109 -178 -237 -236
-438 -33 -111 -36 -166 -14 -240 8 -28 18 -78 21 -111 l7 -60 12 115 c20 191
40 269 112 440 49 116 129 235 219 325 42 41 80 75 84 75 5 0 15 6 22 13 23
22 91 64 163 102 39 20 72 39 74 41 9 9 -26 2 -74 -15z"/>
<path d="M1740 2807 c0 -8 9 -22 20 -32 11 -10 20 -24 20 -31 0 -24 30 -42 80
-49 28 -4 54 -5 56 -2 13 13 -37 84 -74 105 -45 25 -102 30 -102 9z"/>
<path d="M2136 2754 c-28 -17 -145 -88 -261 -158 -115 -70 -216 -134 -224
-141 -12 -12 -9 -41 24 -210 40 -211 41 -212 115 -254 l40 -22 0 23 c0 13 -5
43 -11 68 -13 53 -11 43 -39 197 -12 67 -20 128 -17 136 6 16 105 83 209 142
9 6 54 34 100 63 145 92 212 133 241 145 51 22 29 34 -72 39 -46 3 -62 -2
-105 -28z"/>
<path d="M3116 2689 c-4 -29 -16 -68 -26 -89 -21 -41 -87 -104 -119 -115 -33
-10 -22 -34 32 -73 47 -34 49 -34 89 -21 49 16 104 63 123 104 7 16 18 53 25
81 9 43 9 58 -5 90 -23 55 -43 74 -80 74 -31 0 -33 -2 -39 -51z"/>
<path d="M2758 2662 c-9 -9 -86 -69 -172 -132 -99 -73 -156 -122 -156 -133 0
-42 70 -216 95 -237 12 -10 13 -7 6 17 -5 15 -14 41 -20 58 -7 16 -10 38 -7
50 5 20 174 155 194 155 5 0 12 6 15 13 3 7 24 26 48 42 74 50 109 79 109 92
0 6 -22 29 -48 52 -45 37 -50 39 -64 23z"/>
<path d="M2035 2072 c-16 -9 -32 -19 -35 -22 -3 -3 -17 -11 -32 -17 -14 -6
-42 -36 -61 -65 -48 -71 -121 -143 -160 -158 -72 -27 -83 -33 -64 -37 9 -3 17
-8 17 -13 0 -5 12 -16 28 -24 15 -8 23 -15 17 -16 -28 -1 25 -20 58 -20 94 0
197 88 280 239 15 27 17 45 12 92 -8 64 -13 68 -60 41z"/>
<path d="M1032 1968 c-10 -26 -8 -44 8 -107 36 -142 88 -266 120 -286 8 -5
-28 119 -50 170 -5 11 -16 61 -25 110 -25 141 -26 145 -34 145 -3 0 -12 -14
-19 -32z"/>
</g>
</svg>
