<?xml version="1.0" standalone="no"?>
<!DOCTYPE svg PUBLIC "-//W3C//DTD SVG 20010904//EN"
 "http://www.w3.org/TR/2001/REC-SVG-20010904/DTD/svg10.dtd">
<svg version="1.0" xmlns="http://www.w3.org/2000/svg"
 width="860.000000pt" height="860.000000pt" viewBox="0 0 860.000000 860.000000"
 preserveAspectRatio="xMidYMid meet">

<g transform="translate(0.000000,860.000000) scale(0.100000,-0.100000)"
fill="#000000" stroke="none">
<path d="M8256 6380 c-14 -41 -97 -176 -139 -227 -21 -27 -98 -109 -170 -183
-254 -261 -320 -384 -314 -584 l3 -89 -39 -28 c-52 -38 -133 -67 -223 -81 -49
-8 -74 -16 -74 -25 0 -11 -479 -13 -2755 -13 -1515 0 -2755 2 -2755 5 0 3 7
38 14 78 8 40 24 126 36 192 36 205 72 298 164 422 139 190 385 242 615 132
l85 -40 123 123 c115 115 122 123 100 132 -38 16 -371 11 -473 -7 -345 -62
-615 -249 -812 -562 -67 -108 -130 -264 -172 -432 l-11 -43 -224 0 -225 0 0
-90 0 -90 211 0 211 0 -6 -27 c-11 -52 -105 -577 -126 -703 -11 -69 -41 -233
-65 -365 -24 -132 -65 -359 -90 -505 -59 -338 -80 -434 -117 -539 -61 -173
-142 -277 -265 -338 -71 -35 -81 -37 -191 -41 -100 -3 -133 0 -225 22 -60 14
-114 26 -121 26 -7 0 -61 -55 -120 -123 l-106 -122 42 -8 c24 -5 129 -6 233
-3 219 5 306 22 441 85 234 110 403 289 544 576 124 253 204 517 289 955 40
207 133 704 171 915 17 94 33 178 36 188 5 16 175 17 3390 17 2248 0 3384 3
3385 10 2 13 4 19 18 55 6 17 11 34 10 39 0 5 4 12 9 15 5 3 12 16 16 28 l7
23 -618 2 c-357 2 -601 6 -578 11 75 16 147 40 163 56 8 9 17 14 19 11 2 -3
19 8 39 23 26 21 52 31 102 38 162 22 280 101 377 254 42 65 76 141 68 149 -4
3 -2 6 4 6 14 0 71 207 79 285 11 113 25 350 22 385 -3 33 -4 34 -12 10z
m-911 -1230 c3 -5 -1 -10 -9 -10 -9 0 -16 5 -16 10 0 6 4 10 9 10 6 0 13 -4
16 -10z m-5778 -6 c-3 -3 -12 -4 -19 -1 -8 3 -5 6 6 6 11 1 17 -2 13 -5z m-90
-116 c-2 -13 -4 -3 -4 22 0 25 2 35 4 23 2 -13 2 -33 0 -45z m51 -45 c-10 -2
-26 -2 -35 0 -10 3 -2 5 17 5 19 0 27 -2 18 -5z"/>
<path d="M7341 5568 c-65 -33 -86 -67 -86 -136 0 -93 61 -155 151 -155 119 0
197 138 132 233 -52 76 -123 97 -197 58z"/>
<path d="M8100 4799 c-14 -6 -74 -25 -135 -44 -276 -84 -411 -130 -423 -144
-9 -11 -11 -12 -6 -2 5 10 3 13 -7 9 -8 -3 -41 -14 -74 -24 -33 -10 -62 -21
-65 -24 -3 -3 -16 -7 -30 -9 -14 -1 -47 -11 -75 -21 -27 -10 -65 -21 -83 -25
-48 -10 -62 -29 -62 -86 0 -27 2 -49 5 -49 3 0 55 14 116 31 88 24 126 30 190
28 43 -2 79 -7 79 -12 0 -4 4 -6 9 -2 6 3 22 -16 37 -42 25 -41 28 -56 26
-117 -3 -88 -6 -108 -16 -124 -4 -7 -2 -12 6 -12 10 0 10 -2 1 -8 -14 -9 -46
-149 -38 -162 3 -5 1 -17 -4 -27 -11 -19 -111 -533 -114 -587 -2 -17 -5 -36
-9 -41 -5 -9 -16 -62 -34 -163 -2 -15 -13 -72 -23 -127 -27 -138 -23 -290 9
-362 21 -49 30 -58 53 -54 5 1 6 -3 2 -9 -12 -19 54 -68 113 -86 41 -11 77
-15 127 -11 73 6 165 32 177 51 4 6 8 8 8 3 0 -10 73 21 82 36 4 7 8 8 8 4 0
-5 13 0 29 9 17 10 28 21 25 26 -3 4 2 5 10 2 9 -3 16 -1 16 5 0 6 4 10 9 9
16 -5 101 63 95 75 -4 7 -4 9 1 5 11 -11 47 11 39 24 -4 6 -3 8 2 5 12 -7 99
60 99 76 1 7 7 11 14 9 27 -6 38 19 40 90 l2 72 -34 -34 c-18 -19 -63 -57 -98
-84 -35 -27 -69 -54 -74 -60 -15 -16 -44 -33 -97 -57 -27 -12 -48 -24 -48 -28
0 -3 -10 -7 -22 -7 -13 -1 -42 -3 -65 -5 -51 -4 -89 15 -105 53 -7 15 -16 28
-19 28 -16 0 4 177 40 353 22 106 41 206 44 222 3 17 10 53 17 80 6 28 12 64
12 80 1 17 4 32 7 35 4 3 16 56 29 119 16 86 19 118 10 128 -8 10 -7 12 4 8
12 -5 18 10 29 72 7 43 14 85 16 93 1 8 9 44 17 80 8 35 12 68 9 73 -2 4 -1
13 5 20 11 15 32 119 32 162 0 17 4 35 9 41 8 9 29 103 35 154 1 14 5 32 9 40
7 18 47 217 47 236 0 16 -6 16 -40 3z"/>
<path d="M2629 4604 c-151 -27 -288 -89 -381 -172 -174 -157 -226 -356 -140
-546 19 -44 74 -112 219 -275 225 -251 268 -320 268 -425 0 -266 -285 -336
-635 -156 l-95 50 -110 -110 c-124 -125 -124 -116 -5 -154 191 -61 451 -72
622 -27 315 82 520 336 479 590 -18 110 -55 169 -274 436 -228 277 -251 315
-251 430 0 153 141 253 340 243 165 -9 260 -92 258 -225 l0 -63 53 0 c29 0 53
2 53 5 0 8 69 317 76 337 4 14 -8 21 -61 37 -129 40 -283 50 -416 25z"/>
<path d="M4130 4605 c-164 -34 -297 -102 -397 -202 -125 -126 -170 -255 -144
-412 17 -106 48 -152 257 -386 215 -241 252 -297 261 -404 11 -123 -53 -218
-173 -256 -119 -37 -304 0 -483 97 l-74 40 -108 -108 c-60 -60 -109 -112 -109
-116 0 -12 187 -66 290 -84 128 -22 334 -15 440 16 345 99 544 380 460 652
-26 84 -46 112 -265 378 -103 125 -197 249 -212 280 -37 77 -43 181 -15 236
25 49 74 95 132 125 40 21 59 24 160 24 102 0 120 -3 160 -24 96 -50 135 -111
128 -203 l-4 -58 52 0 51 0 12 43 c10 38 71 305 71 312 0 9 -88 36 -160 49
-98 19 -240 19 -330 1z"/>
<path d="M6080 4584 c-14 -2 -59 -9 -100 -15 -236 -35 -460 -158 -684 -377
-268 -262 -436 -635 -436 -969 1 -223 67 -380 189 -447 171 -93 427 14 701
293 146 149 315 375 390 520 12 24 24 41 27 38 2 -3 -18 -122 -46 -264 -64
-331 -65 -337 -51 -413 15 -86 50 -143 105 -176 81 -47 232 -31 372 40 99 50
206 129 294 215 96 96 107 113 115 186 l7 60 -125 -120 c-237 -228 -397 -286
-438 -159 -18 53 -10 106 70 484 158 745 229 1094 225 1098 -6 6 -583 12 -615
6z m134 -218 c55 -15 102 -29 105 -31 3 -3 -7 -70 -23 -148 -26 -132 -33 -152
-101 -287 -115 -224 -250 -416 -458 -649 -142 -158 -272 -242 -378 -244 -62
-1 -95 22 -129 89 -22 44 -24 60 -23 159 3 270 130 659 300 916 58 89 109 139
181 177 86 46 121 52 282 47 114 -3 167 -9 244 -29z"/>
<path d="M782 2308 c-139 -66 -307 -98 -587 -111 -27 -1 42 -6 155 -10 113 -5
1863 -7 3890 -5 l3685 3 37 70 c20 39 37 76 37 83 1 9 -718 12 -3566 11
l-3568 -1 -83 -40z"/>
<path d="M0 2196 c0 -12 9 -16 43 -15 23 1 56 5 72 9 29 7 29 8 4 9 -14 0 -47
4 -73 7 -38 6 -46 4 -46 -10z"/>
</g>
</svg>
