<?xml version="1.0" standalone="no"?>
<!DOCTYPE svg PUBLIC "-//W3C//DTD SVG 20010904//EN"
 "http://www.w3.org/TR/2001/REC-SVG-20010904/DTD/svg10.dtd">
<svg version="1.0" xmlns="http://www.w3.org/2000/svg"
 width="390.000000pt" height="280.000000pt" viewBox="0 0 390.000000 280.000000"
 preserveAspectRatio="xMidYMid meet">

<g transform="translate(0.000000,280.000000) scale(0.100000,-0.100000)"
fill="#000000" stroke="none">
<path d="M2476 2753 c4 -27 17 -79 30 -117 32 -97 50 -106 108 -53 26 24 42
51 60 107 13 41 27 83 31 93 7 16 -3 17 -115 17 l-121 0 7 -47z"/>
<path d="M3063 2770 c-8 -21 -8 -30 1 -33 6 -2 -7 -13 -29 -23 -22 -11 -43
-23 -46 -28 -4 -4 -10 -3 -13 3 -9 14 -104 14 -147 -1 -58 -19 -89 -46 -89
-78 0 -52 46 -79 142 -84 54 -3 59 -1 88 31 52 56 74 42 83 -54 7 -69 -4 -113
-29 -113 -30 0 -75 -35 -103 -80 -15 -25 -41 -58 -58 -75 -70 -71 -138 -184
-128 -214 3 -10 23 -23 48 -31 77 -23 141 -62 202 -124 99 -101 142 -217 132
-355 -12 -181 -128 -339 -295 -404 -32 -13 -75 -17 -172 -17 -140 0 -200 15
-267 66 -57 43 -81 22 -34 -32 40 -45 41 -90 5 -133 -14 -17 -31 -31 -36 -31
-6 0 -2 8 9 18 20 16 20 20 7 57 -7 22 -14 41 -14 43 0 1 -8 2 -19 2 -15 0
-18 7 -17 36 1 22 -4 39 -11 41 -7 3 -13 -1 -13 -8 0 -7 -11 -25 -25 -39 -19
-20 -26 -41 -31 -88 -4 -35 -12 -62 -18 -62 -6 0 -54 12 -106 26 -52 15 -117
33 -145 40 -104 29 -203 45 -294 49 -137 5 -98 -11 59 -25 131 -11 195 -23
215 -41 5 -5 18 -9 28 -9 13 0 17 -5 13 -15 -8 -22 4 -45 24 -45 10 0 20 -9
23 -21 5 -18 11 -20 37 -14 37 8 60 -7 60 -40 0 -16 9 -26 30 -35 47 -19 80
-49 73 -65 -3 -9 1 -15 8 -15 8 0 9 -3 4 -9 -6 -6 -36 -6 -80 0 -38 6 -106 14
-150 18 -44 4 -93 13 -108 19 -32 13 -192 20 -203 9 -4 -4 22 -7 57 -7 35 0
79 -4 98 -10 34 -10 71 -40 71 -60 0 -5 5 -10 11 -10 10 0 7 -49 -7 -124 -3
-18 -2 -18 16 2 11 12 20 25 20 30 0 5 12 15 28 23 15 8 30 18 34 24 4 5 8 0
8 -13 0 -12 6 -21 12 -20 8 2 13 -12 13 -39 1 -38 -1 -43 -21 -43 -12 0 -30
-3 -40 -7 -13 -5 -15 -3 -9 8 6 9 0 8 -19 -5 -21 -13 -58 -20 -140 -26 -112
-8 -155 -20 -175 -52 -10 -15 -8 -17 18 -12 26 6 30 3 36 -26 5 -21 15 -34 32
-41 24 -9 25 -13 20 -61 -5 -40 -14 -59 -39 -85 l-32 -33 1117 0 1117 0 0 740
c0 407 -3 740 -7 740 -54 3 -269 42 -321 59 -52 16 -139 96 -166 152 -21 45
-22 56 -15 132 5 45 15 118 23 162 37 209 45 266 50 342 3 46 12 98 20 115 15
35 36 117 36 142 0 14 -28 16 -223 16 l-223 0 -11 -30z m-743 -1884 c0 13 51
-39 66 -67 12 -23 11 -29 -1 -39 -12 -10 -16 -9 -21 3 -3 9 -12 13 -19 11 -8
-4 -15 5 -20 25 -3 16 -13 35 -21 42 -8 6 -14 18 -14 26 0 13 3 13 15 3 8 -7
15 -9 15 -4z"/>
<path d="M2568 1833 c6 -2 18 -2 25 0 6 3 1 5 -13 5 -14 0 -19 -2 -12 -5z"/>
<path d="M2821 1816 c6 -13 19 -26 28 -29 9 -3 25 -8 36 -12 14 -5 11 0 -10
19 -16 14 -38 31 -47 36 -16 10 -17 8 -7 -14z"/>
<path d="M2346 1697 c-57 -96 -50 -247 13 -310 l31 -32 0 193 c0 116 -4 192
-10 192 -5 0 -20 -19 -34 -43z"/>
<path d="M2522 1653 l3 -58 66 -3 c78 -3 115 9 131 42 9 20 8 30 -6 51 -16 24
-21 25 -107 25 l-90 0 3 -57z"/>
<path d="M2929 1686 c-16 -20 -18 -20 -36 -3 -22 19 -33 22 -33 6 0 -5 5 -7
10 -4 6 3 10 -4 10 -17 0 -18 -2 -20 -10 -8 -7 11 -10 6 -10 -21 0 -26 -9 -46
-36 -77 -19 -23 -41 -42 -47 -42 -7 0 -18 -4 -26 -9 -12 -8 -9 -16 16 -44 16
-18 47 -63 68 -98 21 -35 40 -66 42 -68 8 -11 64 56 85 103 30 67 31 188 2
257 -19 46 -19 46 -35 25z"/>
<path d="M2115 1663 c-27 -8 -67 -12 -87 -11 -21 2 -38 0 -38 -4 0 -5 -6 -8
-14 -8 -7 0 -16 -9 -19 -20 -4 -16 4 -24 40 -40 25 -11 52 -20 60 -20 8 0 26
-6 41 -14 67 -34 69 -33 76 39 4 35 9 71 12 78 6 17 -7 17 -71 0z"/>
<path d="M2518 1378 l-3 -113 -29 -5 c-29 -5 -28 -6 24 -30 72 -34 193 -35
260 -3 44 21 44 21 15 23 -27 1 -38 13 -99 106 -75 114 -96 134 -138 134 l-27
0 -3 -112z"/>
<path d="M1940 1315 c0 -2 15 -12 33 -20 l32 -16 -25 20 c-24 20 -40 26 -40
16z"/>
<path d="M2035 1261 c17 -12 54 -30 84 -42 30 -11 67 -29 82 -39 32 -24 55
-25 62 -6 4 11 -17 23 -79 45 -47 17 -91 31 -98 31 -6 0 -16 4 -21 9 -6 5 -21
12 -35 16 -23 6 -23 5 5 -14z"/>
<path d="M1215 899 c-66 -40 -84 -48 -200 -83 -66 -21 -145 -46 -175 -56 -68
-22 -265 -83 -469 -145 l-154 -47 -50 16 c-27 9 -76 16 -108 16 l-59 0 0 -200
0 -200 359 0 c309 0 362 2 375 15 21 22 126 53 202 61 35 4 64 11 64 15 0 19
28 8 35 -13 6 -22 7 -22 21 7 15 31 52 88 137 213 33 47 47 77 43 89 -4 13 3
29 24 50 29 29 29 32 27 119 -2 65 -9 99 -23 125 l-19 36 -30 -18z"/>
<path d="M1550 790 c0 -5 18 -10 40 -10 22 0 40 5 40 10 0 6 -18 10 -40 10
-22 0 -40 -4 -40 -10z"/>
<path d="M1283 524 c3 -3 -1 -29 -9 -57 -12 -42 -43 -229 -44 -259 0 -5 36 -8
79 -8 l80 0 -15 35 c-7 19 -14 43 -14 53 0 10 -7 33 -16 51 -16 33 -38 157
-29 171 3 4 -5 10 -16 13 -12 3 -19 3 -16 1z"/>
<path d="M1732 90 c0 -25 2 -39 5 -32 3 9 9 10 18 2 9 -8 11 -5 7 15 -2 14 -8
23 -12 20 -5 -3 -11 5 -13 17 -2 13 -5 3 -5 -22z"/>
<path d="M2106 121 c-4 -5 3 -7 14 -4 26 7 25 -7 -1 -41 l-20 -26 28 1 c16 1
21 3 11 6 -16 4 -16 6 -2 28 9 13 13 29 9 35 -8 12 -32 13 -39 1z"/>
<path d="M2175 120 c-3 -6 1 -7 9 -4 23 9 20 -16 -6 -43 l-21 -23 29 1 c18 1
22 3 11 6 -17 4 -18 6 -2 24 10 10 15 25 12 34 -7 17 -23 20 -32 5z"/>
<path d="M2237 123 c-4 -3 -7 -21 -7 -40 0 -26 4 -33 19 -33 11 0 22 4 25 9 9
14 -4 41 -20 41 -8 0 -14 5 -14 11 0 6 7 9 15 5 8 -3 15 -1 15 4 0 11 -23 13
-33 3z m31 -51 c2 -7 -3 -12 -12 -12 -9 0 -16 7 -16 16 0 17 22 14 28 -4z"/>
<path d="M2293 114 c-4 -10 0 -22 10 -29 13 -9 14 -15 4 -26 -7 -7 -2 -5 11 6
26 22 26 58 -1 63 -9 2 -20 -4 -24 -14z m37 -9 c0 -8 -7 -15 -15 -15 -8 0 -15
7 -15 15 0 8 7 15 15 15 8 0 15 -7 15 -15z"/>
<path d="M2365 118 c-3 -7 -6 -24 -7 -38 -2 -19 2 -26 20 -28 21 -3 23 0 20
34 -3 37 -24 58 -33 32z m25 -8 c0 -5 -4 -10 -10 -10 -5 0 -10 5 -10 10 0 6 5
10 10 10 6 0 10 -4 10 -10z m0 -35 c0 -8 -4 -15 -9 -15 -13 0 -22 16 -14 24
11 11 23 6 23 -9z"/>
<path d="M2426 121 c-3 -5 2 -7 12 -4 15 4 19 -1 19 -27 0 -26 -4 -31 -20 -26
-14 3 -17 2 -9 -6 19 -19 40 -1 38 34 -2 32 -27 51 -40 29z"/>
<path d="M2495 104 c-18 -29 -14 -54 10 -54 21 0 30 27 15 45 -6 8 -9 19 -5
25 14 22 -4 8 -20 -16z m25 -29 c0 -8 -7 -15 -15 -15 -8 0 -15 7 -15 15 0 8 7
15 15 15 8 0 15 -7 15 -15z"/>
<path d="M2562 105 c-22 -28 -23 -30 -5 -34 10 -2 21 -8 24 -13 10 -15 16 14
10 47 l-6 29 -23 -29z m14 -22 c-10 -10 -19 5 -10 18 6 11 8 11 12 0 2 -7 1
-15 -2 -18z"/>
<path d="M2631 130 c-1 -3 -3 -22 -4 -43 -2 -31 1 -37 18 -37 13 0 16 3 8 8
-6 4 -13 23 -16 42 -2 19 -5 33 -6 30z"/>
<path d="M2690 120 c-10 -6 -11 -10 -2 -10 6 0 12 -11 12 -24 0 -13 -6 -27
-12 -29 -7 -3 -4 -6 7 -6 18 -1 20 4 17 39 -2 22 -5 40 -6 40 0 0 -8 -5 -16
-10z"/>
<path d="M1350 85 c0 -19 4 -35 8 -35 4 0 6 16 4 35 -2 19 -6 35 -8 35 -2 0
-4 -16 -4 -35z"/>
<path d="M1390 86 c0 -28 4 -36 18 -36 13 0 14 2 3 9 -8 5 -12 18 -8 30 3 12
1 24 -4 27 -5 3 -9 -11 -9 -30z"/>
<path d="M1578 115 c-7 -7 3 -65 11 -65 4 0 5 16 3 35 -4 36 -5 38 -14 30z"/>
<path d="M1185 100 c-4 -6 -2 -17 5 -24 8 -11 8 -15 -2 -19 -8 -4 -7 -6 5 -6
9 -1 17 6 17 14 0 8 -5 15 -11 15 -6 0 -9 7 -5 15 6 17 0 20 -9 5z"/>
<path d="M1259 78 c4 -28 6 -29 9 -9 2 13 0 27 -5 32 -6 6 -7 -3 -4 -23z"/>
<path d="M1620 95 c-7 -8 -9 -22 -6 -31 8 -22 41 -13 42 11 1 15 0 16 -3 3 -5
-21 -33 -24 -33 -5 0 7 5 18 12 25 7 7 9 12 6 12 -3 0 -11 -7 -18 -15z"/>
<path d="M1681 96 c-14 -17 -4 -46 17 -46 13 0 12 3 -3 14 -16 12 -17 16 -6
30 7 9 11 16 8 16 -2 0 -10 -6 -16 -14z"/>
<path d="M1870 95 c-7 -8 -9 -22 -6 -31 8 -22 41 -13 42 11 1 15 0 16 -3 3 -5
-21 -33 -24 -33 -5 0 7 5 18 12 25 7 7 9 12 6 12 -3 0 -11 -7 -18 -15z"/>
<path d="M1956 83 c9 -38 14 -42 14 -10 0 14 -5 29 -10 32 -7 4 -8 -3 -4 -22z"/>
<path d="M1989 78 c4 -28 6 -29 9 -9 2 13 0 27 -5 32 -6 6 -7 -3 -4 -23z"/>
<path d="M1291 78 c-1 -22 4 -28 19 -28 15 0 20 6 19 28 -2 23 -2 24 -6 5 -2
-13 -8 -23 -13 -23 -5 0 -11 10 -13 23 -4 19 -4 18 -6 -5z"/>
<path d="M1434 75 c1 -12 9 -21 21 -22 14 -1 15 0 3 3 -9 3 -19 13 -21 22 -3
12 -4 11 -3 -3z"/>
<path d="M1491 84 c0 -11 3 -14 6 -6 3 7 2 16 -1 19 -3 4 -6 -2 -5 -13z"/>
<path d="M1814 75 c1 -12 9 -21 21 -22 14 -1 15 0 3 3 -9 3 -19 13 -21 22 -3
12 -4 11 -3 -3z"/>
<path d="M1535 78 c19 -11 19 -11 0 -19 -16 -6 -17 -8 -3 -8 23 -1 34 19 17
30 -8 5 -18 9 -24 9 -5 -1 -1 -6 10 -12z"/>
</g>
</svg>
