<?xml version="1.0" standalone="no"?>
<!DOCTYPE svg PUBLIC "-//W3C//DTD SVG 20010904//EN"
 "http://www.w3.org/TR/2001/REC-SVG-20010904/DTD/svg10.dtd">
<svg version="1.0" xmlns="http://www.w3.org/2000/svg"
 width="754.000000pt" height="302.000000pt" viewBox="0 0 754.000000 302.000000"
 preserveAspectRatio="xMidYMid meet">

<g transform="translate(0.000000,302.000000) scale(0.100000,-0.100000)"
fill="#000000" stroke="none">
<path d="M1348 2761 c-9 -11 -14 -28 -11 -40 6 -24 -22 -40 -40 -22 -9 9 -8
16 1 32 13 20 9 39 -9 39 -6 0 -8 -4 -5 -9 11 -18 -6 -41 -30 -41 -13 0 -24
-4 -24 -10 0 -5 5 -10 10 -10 6 0 10 -7 10 -15 0 -8 9 -15 19 -15 27 0 36 -19
19 -37 -13 -13 -17 -13 -31 1 -17 17 -37 21 -37 7 0 -5 10 -11 21 -14 17 -4
20 -12 17 -30 -4 -21 -1 -24 19 -23 15 1 23 7 23 19 0 10 8 17 19 17 30 0 37
-21 13 -41 -22 -17 -29 -39 -13 -39 5 0 11 7 15 15 7 18 42 20 52 3 6 -9 10
-5 14 12 4 16 14 26 28 28 18 3 20 8 15 32 -4 22 -1 31 11 36 22 9 20 21 -5
27 -17 5 -20 11 -15 31 6 23 3 26 -22 26 -19 0 -32 7 -38 20 -9 20 -9 20 -26
1z m65 -45 c8 -20 -20 -43 -35 -28 -14 14 -3 42 16 42 7 0 16 -6 19 -14z m-49
-52 c7 -19 -1 -34 -19 -34 -18 0 -28 17 -21 35 7 20 32 19 40 -1z m63 -30 c8
-22 -18 -37 -36 -20 -7 8 -10 19 -7 25 10 16 36 13 43 -5z"/>
<path d="M1125 2667 c-6 -7 -9 -20 -7 -29 2 -13 -3 -18 -17 -18 -12 0 -21 4
-21 8 0 5 -7 9 -15 9 -8 0 -15 -8 -15 -18 0 -10 7 -16 17 -15 10 0 19 -7 21
-16 2 -11 -3 -18 -12 -18 -9 0 -16 -8 -16 -20 0 -24 18 -26 35 -3 13 17 35 10
35 -12 0 -7 7 -16 15 -19 20 -7 31 20 16 38 -13 15 1 30 28 31 8 0 16 6 18 13
5 12 -1 14 -42 16 -16 1 -19 7 -17 34 3 33 -5 40 -23 19z m15 -77 c0 -11 -6
-20 -13 -20 -19 0 -27 10 -20 26 8 21 33 17 33 -6z"/>
<path d="M1080 2659 c0 -5 5 -7 10 -4 6 3 10 8 10 11 0 2 -4 4 -10 4 -5 0 -10
-5 -10 -11z"/>
<path d="M2777 2653 c-9 -8 -9 -180 -1 -211 12 -44 108 -68 167 -41 37 17 47
50 47 155 0 78 -3 96 -16 101 -25 10 -34 -16 -34 -105 0 -105 -8 -122 -60
-122 -51 0 -60 17 -60 119 0 43 -3 86 -6 95 -6 16 -26 21 -37 9z"/>
<path d="M3301 2647 c-8 -11 -1 -30 34 -83 38 -59 45 -76 45 -122 0 -50 2 -53
23 -50 19 3 23 10 27 63 4 48 13 71 44 117 23 35 36 64 32 74 -9 24 -28 12
-62 -39 -17 -26 -34 -50 -37 -53 -3 -4 -22 19 -42 50 -38 59 -46 64 -64 43z"/>
<path d="M3596 2638 c-24 -38 -97 -229 -91 -239 12 -18 35 -8 50 21 14 27 20
30 63 30 52 0 65 -6 75 -33 8 -22 35 -33 49 -19 8 8 -1 40 -31 114 -50 120
-66 148 -86 148 -8 0 -21 -10 -29 -22z m64 -135 c0 -8 -14 -13 -39 -13 l-40 0
13 33 c7 17 17 41 21 52 6 18 10 15 26 -20 10 -22 19 -46 19 -52z"/>
<path d="M4791 2647 c-51 -18 -76 -58 -76 -121 0 -62 19 -102 57 -122 36 -19
122 -18 159 2 28 14 30 18 27 67 l-3 52 -52 3 c-48 3 -53 1 -53 -17 0 -17 6
-21 35 -21 30 0 35 -3 35 -24 0 -26 -21 -36 -76 -36 -53 0 -77 28 -78 89 -1
46 3 56 27 77 36 31 68 30 105 -1 38 -32 52 -32 52 0 0 48 -90 78 -159 52z"/>
<path d="M5032 2648 c-13 -13 -17 -212 -6 -242 3 -9 15 -16 25 -16 15 0 19 8
21 38 8 204 -2 258 -40 220z"/>
<path d="M5193 2653 c-48 -9 -70 -84 -35 -116 9 -8 39 -22 66 -29 28 -8 55
-22 60 -31 17 -26 -5 -52 -47 -55 -31 -3 -38 1 -52 28 -20 38 -51 38 -47 0 4
-40 37 -60 97 -60 67 0 105 27 105 74 0 42 -30 70 -95 88 -55 15 -71 42 -39
65 27 20 40 16 72 -18 31 -33 52 -32 52 2 0 39 -69 65 -137 52z"/>
<path d="M5973 2648 c-17 -23 -93 -218 -93 -238 0 -31 33 -24 52 10 15 27 22
30 67 30 46 0 52 -3 66 -30 17 -33 55 -42 55 -12 0 24 -78 213 -97 235 -19 20
-37 22 -50 5z m47 -104 c11 -25 20 -48 20 -50 0 -2 -18 -4 -40 -4 -22 0 -40 1
-40 3 0 10 33 97 36 97 3 0 14 -21 24 -46z"/>
<path d="M6374 2647 c-2 -7 -3 -67 -2 -133 3 -111 4 -119 23 -119 19 0 20 8
23 124 2 93 -1 126 -10 133 -19 11 -28 10 -34 -5z"/>
<path d="M6543 2645 c-79 -34 -92 -170 -22 -229 25 -21 41 -26 86 -26 49 0 59
4 89 34 34 34 40 56 35 121 -5 49 -27 81 -71 99 -49 19 -75 20 -117 1z m112
-50 c37 -36 32 -130 -9 -157 -23 -16 -75 -8 -96 14 -30 33 -28 111 5 143 13
14 36 25 50 25 14 0 37 -11 50 -25z"/>
<path d="M6803 2653 c-10 -3 -13 -40 -13 -134 0 -122 1 -129 20 -129 18 0 20
7 21 73 1 39 1 78 0 85 -4 30 20 6 73 -74 46 -69 61 -85 79 -82 21 3 22 8 25
127 3 128 -4 155 -32 132 -11 -9 -16 -37 -18 -94 l-3 -82 -60 89 c-60 90 -69
99 -92 89z"/>
<path d="M3054 2637 c-2 -7 -3 -65 -2 -128 l3 -114 74 -3 c85 -3 115 10 137
63 30 73 6 157 -52 181 -44 18 -153 19 -160 1z m147 -46 c18 -15 23 -28 23
-69 0 -68 -21 -92 -81 -92 l-43 0 0 90 0 90 39 0 c23 0 48 -8 62 -19z"/>
<path d="M3795 2628 c-3 -13 -5 -70 -3 -128 3 -97 4 -105 23 -105 18 0 20 8
25 100 l5 100 14 -55 c35 -137 41 -151 64 -148 19 3 26 17 47 93 l25 90 5 -87
c5 -92 10 -104 35 -94 13 5 15 24 13 128 l-3 123 -31 3 c-39 4 -48 -7 -69 -96
-10 -41 -21 -70 -25 -65 -4 4 -15 37 -25 73 -21 79 -29 90 -66 90 -21 0 -30
-6 -34 -22z"/>
<path d="M4207 2643 c-4 -3 -7 -62 -7 -130 0 -123 0 -124 23 -121 19 3 22 10
25 61 2 47 6 57 21 57 24 0 45 -18 75 -68 29 -46 51 -61 68 -44 11 11 -8 54
-41 89 l-21 22 30 16 c25 13 30 21 30 53 0 53 -35 72 -127 72 -38 0 -73 -3
-76 -7z m141 -45 c17 -17 15 -45 -4 -52 -9 -3 -33 -6 -55 -6 -38 0 -39 1 -39
35 0 35 1 35 43 35 24 0 48 -5 55 -12z"/>
<path d="M4482 2638 c-13 -13 -17 -202 -6 -232 5 -13 23 -16 98 -16 97 0 113
4 95 27 -8 8 -35 13 -79 13 -60 0 -68 2 -65 18 2 9 4 27 4 40 1 20 5 22 67 22
57 0 65 2 62 18 -3 14 -16 18 -70 20 -66 3 -67 3 -65 30 2 26 4 27 75 30 64 3
72 5 72 22 0 18 -7 20 -88 20 -55 0 -92 -4 -100 -12z"/>
<path d="M5370 2630 c0 -17 6 -20 40 -20 l39 0 3 -107 c3 -100 4 -108 23 -108
19 0 20 8 23 107 l3 107 42 3 c29 2 42 8 42 18 0 12 -20 16 -107 18 -103 3
-108 2 -108 -18z"/>
<path d="M5624 2637 c-2 -7 -3 -65 -2 -128 3 -106 4 -114 23 -114 17 0 20 8
23 50 2 28 7 54 12 58 17 18 52 -7 86 -59 23 -35 41 -54 54 -54 29 0 25 30
-10 78 -36 49 -35 48 -10 55 51 13 47 97 -6 117 -39 15 -164 13 -170 -3z m144
-36 c8 -4 12 -19 10 -32 -3 -21 -9 -24 -55 -27 l-53 -3 0 35 c0 36 0 36 43 36
23 0 48 -4 55 -9z"/>
<path d="M6114 2639 c-10 -16 7 -27 46 -31 l35 -3 3 -108 c3 -105 3 -108 25
-105 21 3 22 8 25 111 l3 107 39 0 c33 0 40 3 40 20 0 19 -7 20 -104 20 -65 0
-107 -4 -112 -11z"/>
<path d="M870 2579 c0 -5 5 -7 10 -4 6 3 10 8 10 11 0 2 -4 4 -10 4 -5 0 -10
-5 -10 -11z"/>
<path d="M1501 2552 c-1 -7 -5 -10 -11 -7 -6 3 -10 -5 -10 -18 0 -26 19 -40
37 -29 8 5 7 16 -2 37 -7 17 -14 24 -14 17z"/>
<path d="M1660 2522 c0 -34 -16 -52 -46 -52 -34 0 -38 -37 -6 -53 29 -13 40
-50 23 -71 -8 -10 -7 -17 4 -26 13 -10 19 -10 33 4 25 22 47 20 71 -5 20 -21
59 -20 46 1 -13 20 7 49 40 60 41 13 45 37 11 50 -29 11 -41 42 -27 69 15 28
-12 50 -34 27 -22 -21 -41 -20 -65 4 -29 29 -50 26 -50 -8z m94 -58 c35 -34
14 -87 -34 -87 -17 0 -36 6 -41 14 -23 36 2 89 41 89 10 0 26 -7 34 -16z"/>
<path d="M1100 2509 c0 -5 5 -7 10 -4 6 3 10 8 10 11 0 2 -4 4 -10 4 -5 0 -10
-5 -10 -11z"/>
<path d="M1325 2487 c-5 -12 -14 -16 -26 -12 -11 4 -19 2 -19 -4 0 -6 5 -11
10 -11 6 0 8 -11 4 -27 -7 -26 -6 -27 11 -13 17 13 18 13 13 -1 -5 -13 -2 -16
13 -12 10 3 19 14 19 24 0 11 5 19 10 19 6 0 10 5 10 10 0 6 -6 10 -14 10 -8
0 -16 8 -19 18 -4 16 -4 16 -12 -1z"/>
<path d="M1879 2415 c-1 -3 -2 -8 -3 -12 -4 -21 -19 -33 -41 -33 -33 0 -41
-19 -16 -36 23 -16 27 -44 10 -61 -18 -18 -3 -30 30 -25 22 3 32 -1 41 -18 14
-26 33 -22 40 11 4 17 14 25 33 27 25 3 40 32 16 32 -6 0 -9 17 -7 43 l3 42
-33 -3 c-27 -3 -34 0 -39 17 -5 18 -31 30 -34 16z m55 -71 c9 -8 16 -22 16
-29 0 -7 -7 -21 -16 -29 -8 -9 -22 -16 -29 -16 -7 0 -21 7 -29 16 -9 8 -16 22
-16 29 0 7 7 21 16 29 8 9 22 16 29 16 7 0 21 -7 29 -16z"/>
<path d="M1322 2338 c-28 -28 -3 -72 39 -66 30 4 47 33 33 56 -14 21 -55 27
-72 10z"/>
<path d="M1166 2305 c-3 -9 1 -18 10 -22 19 -7 39 11 30 26 -10 16 -33 13 -40
-4z"/>
<path d="M666 2278 c-19 -11 -21 -51 -3 -66 17 -14 54 -5 62 15 14 38 -23 71
-59 51z m34 -34 c0 -8 -7 -14 -15 -14 -15 0 -21 21 -9 33 10 9 24 -2 24 -19z"/>
<path d="M1420 2246 l-43 -45 -36 20 c-19 10 -47 19 -61 19 l-25 -1 27 -22
c14 -12 37 -42 50 -67 21 -41 23 -57 22 -170 -1 -125 -3 -133 -66 -390 -11
-46 -26 -93 -33 -105 -7 -11 -13 -49 -14 -84 -3 -65 -17 -170 -25 -178 -2 -2
-7 28 -11 68 -7 66 -44 193 -109 374 -14 39 -25 87 -26 107 0 71 -30 49 -49
-37 -7 -30 -7 -30 -71 -27 l-65 3 44 -22 c44 -23 116 -104 151 -171 50 -94 90
-264 90 -378 -1 -144 -54 -316 -142 -453 -31 -48 -66 -86 -143 -152 l-40 -35
186 0 186 0 13 45 c13 45 30 61 30 28 1 -10 9 -28 19 -40 15 -18 29 -23 63
-22 40 1 41 2 13 9 -16 4 -25 8 -18 9 14 1 7 27 -13 51 -7 8 -16 31 -21 50
-10 38 -36 47 -41 15 -2 -11 -7 -23 -10 -27 -11 -11 -4 538 7 627 6 44 13 106
16 138 4 32 33 138 64 235 78 239 98 326 106 464 3 65 12 138 19 163 8 25 10
45 6 45 -5 0 -27 -20 -50 -44z"/>
<path d="M1676 2243 c-6 -14 -5 -15 5 -6 7 7 10 15 7 18 -3 3 -9 -2 -12 -12z"/>
<path d="M1640 2229 c0 -5 5 -7 10 -4 6 3 10 8 10 11 0 2 -4 4 -10 4 -5 0 -10
-5 -10 -11z"/>
<path d="M1720 2229 c0 -5 5 -7 10 -4 6 3 10 8 10 11 0 2 -4 4 -10 4 -5 0 -10
-5 -10 -11z"/>
<path d="M1621 2201 c-8 -5 -9 -11 -3 -15 5 -3 12 1 16 9 6 17 6 18 -13 6z"/>
<path d="M1740 2190 c0 -5 5 -10 10 -10 6 0 10 5 10 10 0 6 -4 10 -10 10 -5 0
-10 -4 -10 -10z"/>
<path d="M528 2173 c7 -3 16 -2 19 1 4 3 -2 6 -13 5 -11 0 -14 -3 -6 -6z"/>
<path d="M1510 2156 c-15 -19 -5 -36 21 -36 22 0 25 22 5 39 -10 9 -16 8 -26
-3z"/>
<path d="M1616 2155 c-3 -8 -1 -15 4 -15 13 0 22 18 11 24 -5 3 -11 -1 -15 -9z"/>
<path d="M696 2145 c-4 -12 -14 -16 -31 -13 -20 4 -25 1 -25 -14 0 -11 -9 -22
-20 -25 -23 -6 -25 -14 -8 -31 9 -9 9 -15 0 -24 -18 -18 -15 -28 8 -28 14 0
20 -7 20 -24 0 -20 4 -23 21 -19 14 4 25 0 31 -11 12 -21 28 -21 28 0 0 12 7
15 25 12 20 -4 25 -1 25 14 0 11 9 22 20 25 22 6 26 18 10 28 -6 3 -7 17 -4
29 4 16 0 25 -10 29 -9 4 -16 15 -16 26 0 14 -5 18 -20 14 -13 -4 -26 1 -34
12 -12 17 -13 17 -20 0z m52 -57 c6 -13 13 -35 16 -49 5 -23 2 -28 -22 -35
-15 -4 -31 -6 -36 -5 -4 1 -14 -4 -22 -10 -8 -6 -14 -10 -15 -8 0 2 -3 15 -5
29 -2 13 -9 27 -15 30 -19 13 -4 35 36 52 51 22 50 22 63 -4z"/>
<path d="M421 2134 c-8 -10 -21 -13 -35 -9 -44 13 -51 11 -54 -22 -3 -26 -9
-33 -33 -38 -32 -7 -38 -25 -14 -45 18 -15 20 -51 4 -67 -17 -17 0 -35 26 -29
25 6 41 -7 47 -39 4 -23 38 -34 38 -11 0 22 38 31 58 12 22 -20 39 -9 44 29 2
22 9 31 28 35 29 7 39 37 16 46 -18 7 -21 45 -5 61 16 16 -2 38 -31 38 -17 0
-29 8 -38 28 -15 30 -30 34 -51 11z m57 -80 c29 -33 28 -69 -3 -99 -67 -68
-185 17 -128 93 35 47 91 49 131 6z"/>
<path d="M1650 2121 c0 -4 13 -8 30 -7 39 1 39 16 0 16 -16 0 -30 -4 -30 -9z"/>
<path d="M1995 2120 c3 -5 8 -10 11 -10 2 0 4 5 4 10 0 6 -5 10 -11 10 -5 0
-7 -4 -4 -10z"/>
<path d="M1173 2074 c-7 -3 -9 -12 -6 -21 5 -12 3 -14 -8 -8 -11 6 -11 5 -2
-5 9 -10 15 -10 28 4 9 9 21 16 26 16 6 0 7 5 4 10 -6 10 -22 12 -42 4z"/>
<path d="M1527 2009 c-23 -13 -21 -36 4 -49 23 -13 49 1 49 26 0 20 -32 34
-53 23z"/>
<path d="M1680 2000 c-17 -32 -3 -60 30 -60 33 0 47 28 30 60 -14 26 -46 26
-60 0z m47 -16 c8 -21 -13 -42 -28 -27 -13 13 -5 43 11 43 6 0 13 -7 17 -16z"/>
<path d="M847 1953 c-15 -15 -6 -52 14 -58 28 -9 43 8 35 39 -6 25 -33 35 -49
19z m33 -28 c0 -8 -4 -15 -10 -15 -5 0 -10 7 -10 15 0 8 5 15 10 15 6 0 10 -7
10 -15z"/>
<path d="M1117 1949 c7 -7 15 -10 18 -7 3 3 -2 9 -12 12 -14 6 -15 5 -6 -5z"/>
<path d="M1190 1945 c-7 -8 -21 -15 -31 -15 -10 0 -21 -4 -24 -10 -3 -5 -1
-10 4 -10 6 0 11 -9 11 -19 0 -34 38 -13 50 27 11 41 8 49 -10 27z"/>
<path d="M2850 1931 c-52 -11 -96 -37 -122 -73 l-23 -33 -3 -392 -3 -393 131
0 130 0 0 450 0 450 -37 -1 c-21 -1 -54 -4 -73 -8z"/>
<path d="M3052 1548 l3 -393 133 -3 132 -3 0 396 0 395 -135 0 -135 0 2 -392z"/>
<path d="M3420 1491 l0 -451 130 0 130 0 0 378 c0 372 0 378 -22 422 -28 55
-86 87 -176 96 l-62 7 0 -452z"/>
<path d="M3980 1931 c-100 -21 -158 -91 -160 -193 l0 -38 500 0 500 0 0 120 0
120 -402 -1 c-222 -1 -419 -4 -438 -8z"/>
<path d="M5100 1933 c-37 -6 -82 -24 -112 -46 -51 -38 -53 -52 -53 -462 l0
-380 133 -3 132 -3 0 451 0 450 -37 -1 c-21 -1 -49 -4 -63 -6z"/>
<path d="M5292 1548 l3 -393 133 -3 132 -3 0 396 0 395 -135 0 -135 0 2 -392z"/>
<path d="M5650 1491 l0 -451 135 0 136 0 -3 388 -3 387 -24 38 c-29 47 -85 74
-176 83 l-65 7 0 -452z"/>
<path d="M6210 1931 c-97 -20 -144 -72 -156 -175 l-7 -56 502 0 501 0 0 120 0
120 -402 -1 c-222 -1 -419 -4 -438 -8z"/>
<path d="M1810 1897 c0 -10 -5 -17 -11 -17 -6 0 -9 -5 -7 -12 3 -7 16 -12 30
-13 15 0 30 -3 34 -7 13 -14 22 -8 26 17 5 22 2 25 -14 19 -12 -3 -27 1 -39
12 -17 16 -19 16 -19 1z"/>
<path d="M2048 1873 c-2 -24 -8 -28 -33 -29 -31 0 -37 -17 -21 -56 5 -10 1
-23 -11 -35 -25 -25 -18 -51 15 -55 22 -2 27 -8 27 -30 1 -38 9 -43 46 -28 29
13 33 12 50 -9 21 -26 39 -20 39 14 0 26 26 40 54 29 20 -8 34 22 17 39 -16
16 -14 37 5 58 22 24 11 49 -21 49 -22 0 -25 4 -25 35 0 34 -20 49 -35 25 -9
-15 -41 -12 -59 5 -23 24 -44 18 -48 -12z m123 -59 c23 -22 26 -30 18 -62 -13
-59 -54 -82 -117 -66 -23 7 -50 48 -46 72 1 6 2 18 3 25 0 7 10 23 21 35 30
31 86 30 121 -4z"/>
<path d="M707 1869 c5 -17 2 -19 -21 -13 -16 4 -26 2 -26 -5 0 -12 39 -15 55
-3 16 12 17 42 1 42 -9 0 -12 -7 -9 -21z"/>
<path d="M1577 1872 c-15 -16 -15 -20 -1 -40 19 -27 50 -28 64 -2 24 45 -29
80 -63 42z m31 -27 c-3 -3 -9 2 -12 12 -6 14 -5 15 5 6 7 -7 10 -15 7 -18z"/>
<path d="M1751 1877 c3 -25 -1 -37 -14 -37 -8 0 -12 -14 -12 -39 0 -34 3 -41
25 -47 14 -3 19 -9 13 -11 -24 -9 -13 -23 12 -17 20 5 27 2 33 -17 l9 -23 12
21 c14 28 14 33 -3 33 -24 0 -90 31 -80 38 5 4 11 16 12 27 2 11 8 24 13 30
14 14 11 42 -6 49 -9 3 -15 1 -14 -7z"/>
<path d="M1165 1862 c-5 -4 -10 -28 -10 -53 0 -44 0 -46 14 -26 14 19 23 87
11 87 -3 0 -9 -4 -15 -8z"/>
<path d="M415 1839 c-4 -6 -21 -9 -38 -7 -27 2 -33 -1 -35 -19 -2 -12 -12 -25
-23 -28 -21 -7 -25 -20 -8 -31 7 -4 8 -20 4 -41 -4 -25 -3 -34 7 -32 28 3 38
-2 38 -21 0 -11 7 -20 15 -20 8 0 15 5 15 11 0 8 12 10 35 6 30 -5 35 -3 35
14 0 12 10 23 25 29 25 10 35 30 14 30 -8 0 -10 12 -6 35 5 32 4 35 -18 35
-18 0 -26 7 -31 25 -7 26 -18 32 -29 14z m39 -61 c22 -32 20 -54 -8 -76 -55
-42 -117 2 -95 68 10 26 16 30 49 30 29 0 43 -6 54 -22z"/>
<path d="M738 1833 c6 -2 18 -2 25 0 6 3 1 5 -13 5 -14 0 -19 -2 -12 -5z"/>
<path d="M918 1829 c-35 -20 -15 -69 28 -69 33 0 49 25 36 55 -12 26 -35 31
-64 14z"/>
<path d="M1455 1758 c-15 -45 -45 -124 -66 -176 -22 -53 -39 -101 -39 -108 0
-7 -7 -33 -15 -57 -41 -121 -63 -512 -38 -673 6 -39 19 -83 28 -98 10 -14 15
-26 11 -26 -7 0 33 -59 59 -87 18 -19 33 -22 138 -25 l119 -3 -44 20 c-156 72
-227 183 -259 410 -18 132 3 337 51 485 31 99 93 207 145 253 42 38 63 55 81
65 15 9 5 10 -42 5 l-62 -6 -7 41 c-13 76 -29 71 -60 -20z m5 -159 c0 -6 -4
-7 -10 -4 -5 3 -10 11 -10 16 0 6 5 7 10 4 6 -3 10 -11 10 -16z m-73 -81 c-3
-8 -6 -5 -6 6 -1 11 2 17 5 13 3 -3 4 -12 1 -19z"/>
<path d="M1885 1813 c-4 -16 -13 -40 -21 -54 -12 -23 -12 -28 0 -32 9 -4 16 3
20 18 4 14 12 22 19 19 9 -3 13 7 12 36 0 46 -21 55 -30 13z"/>
<path d="M681 1817 c-17 -17 -13 -31 5 -16 14 11 19 9 35 -11 12 -17 19 -20
19 -10 0 33 -39 57 -59 37z"/>
<path d="M1862 1800 c0 -14 2 -19 5 -12 2 6 2 18 0 25 -3 6 -5 1 -5 -13z"/>
<path d="M1165 1740 c-3 -5 -1 -10 4 -10 6 0 11 5 11 10 0 6 -2 10 -4 10 -3 0
-8 -4 -11 -10z"/>
<path d="M710 1674 c0 -18 -38 -53 -58 -54 -10 0 -10 -4 0 -20 11 -17 10 -22
-2 -31 -13 -10 -13 -10 1 -6 19 6 44 -29 26 -37 -7 -3 3 -3 22 0 18 3 40 7 49
8 8 2 20 9 26 18 6 8 18 17 26 21 9 3 10 6 3 6 -7 1 -13 7 -13 15 0 8 -13 27
-30 43 -16 15 -30 34 -30 40 0 7 -4 13 -10 13 -5 0 -10 -7 -10 -16z m33 -70
c11 -11 -5 -34 -24 -34 -18 0 -26 20 -12 33 8 9 28 9 36 1z"/>
<path d="M1797 1620 c3 -11 7 -20 9 -20 2 0 4 9 4 20 0 11 -4 20 -9 20 -5 0
-7 -9 -4 -20z"/>
<path d="M345 1600 c-3 -5 -1 -10 4 -10 6 0 11 5 11 10 0 6 -2 10 -4 10 -3 0
-8 -4 -11 -10z"/>
<path d="M1835 1599 c-11 -16 -1 -19 13 -3 7 8 8 14 3 14 -5 0 -13 -5 -16 -11z"/>
<path d="M1755 1590 c3 -5 8 -10 11 -10 2 0 4 5 4 10 0 6 -5 10 -11 10 -5 0
-7 -4 -4 -10z"/>
<path d="M2078 1578 c-2 -15 -11 -24 -25 -26 -19 -3 -21 -8 -17 -31 4 -16 1
-32 -5 -35 -17 -11 -13 -23 9 -29 14 -3 20 -14 20 -31 0 -29 3 -31 30 -14 16
10 23 9 40 -7 21 -19 21 -19 27 3 3 12 16 25 29 28 19 5 22 11 18 34 -4 15 -1
31 5 34 17 11 13 23 -9 29 -13 3 -20 14 -20 30 0 24 -3 25 -35 20 -23 -4 -35
-2 -35 6 0 21 -29 11 -32 -11z m87 -38 c28 -31 28 -58 0 -85 -26 -27 -46 -31
-76 -14 -34 18 -42 56 -18 90 25 35 67 39 94 9z"/>
<path d="M3820 1573 c1 -68 63 -149 150 -193 37 -19 59 -20 440 -20 448 0 412
-7 389 74 -12 45 -53 87 -112 117 -88 45 -122 49 -504 49 l-363 0 0 -27z"/>
<path d="M6050 1465 l0 -125 380 0 380 0 0 125 0 125 -380 0 -380 0 0 -125z"/>
<path d="M1786 1555 c-8 -23 -8 -25 8 -25 8 0 13 7 12 15 -3 23 -13 27 -20 10z"/>
<path d="M1832 1556 c7 -8 15 -12 17 -11 5 6 -10 25 -20 25 -5 0 -4 -6 3 -14z"/>
<path d="M420 1539 c0 -5 5 -7 10 -4 6 3 10 8 10 11 0 2 -4 4 -10 4 -5 0 -10
-5 -10 -11z"/>
<path d="M300 1450 c0 -5 5 -10 10 -10 6 0 10 5 10 10 0 6 -4 10 -10 10 -5 0
-10 -4 -10 -10z"/>
<path d="M390 1450 c0 -5 5 -10 11 -10 5 0 7 5 4 10 -3 6 -8 10 -11 10 -2 0
-4 -4 -4 -10z"/>
<path d="M1470 1445 c0 -5 14 -10 30 -10 17 0 30 5 30 10 0 6 -13 10 -30 10
-16 0 -30 -4 -30 -10z"/>
<path d="M872 1430 c-16 -25 -6 -49 18 -43 26 7 32 28 11 47 -15 14 -18 13
-29 -4z"/>
<path d="M345 1430 c3 -5 8 -10 11 -10 2 0 4 5 4 10 0 6 -5 10 -11 10 -5 0 -7
-4 -4 -10z"/>
<path d="M1541 1414 c0 -11 3 -14 6 -6 3 7 2 16 -1 19 -3 4 -6 -2 -5 -13z"/>
<path d="M1445 1395 c2 -37 15 -43 15 -7 0 18 -4 32 -8 32 -4 0 -7 -11 -7 -25z"/>
<path d="M1759 1381 c-20 -16 -22 -23 -14 -47 20 -57 90 -64 108 -10 20 59
-44 98 -94 57z m63 -17 c12 -11 -5 -44 -23 -44 -14 0 -19 7 -19 25 0 18 5 25
18 25 10 0 21 -3 24 -6z"/>
<path d="M1540 1380 c0 -6 7 -10 15 -10 8 0 15 2 15 4 0 2 -7 6 -15 10 -8 3
-15 1 -15 -4z"/>
<path d="M1515 1351 c-3 -5 -1 -12 5 -16 5 -3 10 1 10 9 0 18 -6 21 -15 7z"/>
<path d="M3820 1160 l0 -121 423 3 c367 3 427 6 457 20 72 33 107 88 113 173
l2 40 -497 3 -498 2 0 -120z"/>
<path d="M6054 1225 c9 -75 43 -127 103 -156 48 -24 49 -24 471 -27 l422 -3 0
120 0 121 -501 0 -502 0 7 -55z"/>
<path d="M2697 973 c-4 -3 -7 -21 -7 -40 l0 -33 2175 0 2175 0 0 34 c0 22 -6
36 -16 40 -21 8 -4319 8 -4327 -1z"/>
<path d="M2727 803 c-4 -3 -7 -44 -7 -90 0 -67 3 -83 15 -83 12 0 15 14 16 63
l1 62 13 -35 c7 -19 14 -47 14 -62 2 -61 34 -42 54 32 l15 55 1 -57 c1 -51 3
-58 21 -58 19 0 20 7 20 90 l0 90 -29 0 c-28 0 -30 -3 -41 -55 -6 -30 -13 -55
-15 -55 -3 0 -12 25 -20 55 -12 40 -21 55 -34 55 -10 0 -21 -3 -24 -7z"/>
<path d="M2922 718 c2 -75 6 -93 18 -93 12 0 16 18 18 93 3 87 2 92 -18 92
-20 0 -21 -5 -18 -92z"/>
<path d="M3002 785 c-20 -43 -15 -122 8 -145 11 -11 28 -20 38 -20 37 0 75 53
46 64 -21 8 -21 8 -27 -15 -8 -31 -31 -18 -41 23 -16 65 16 118 43 71 8 -15
12 -16 23 -5 20 20 -3 47 -44 50 -29 3 -36 -1 -46 -23z"/>
<path d="M3130 721 c0 -67 3 -90 14 -94 20 -8 26 2 26 40 0 44 18 39 44 -10
11 -20 25 -37 33 -37 17 0 16 15 -3 57 -13 25 -14 37 -5 46 15 15 14 60 -1 75
-7 7 -34 12 -60 12 l-48 0 0 -89z m85 34 c0 -13 -8 -21 -22 -23 -19 -3 -23 1
-23 23 0 22 4 26 23 23 14 -2 22 -10 22 -23z"/>
<path d="M3295 790 c-21 -24 -24 -100 -4 -136 24 -46 89 -42 109 7 17 39 7
119 -16 136 -26 19 -68 16 -89 -7z m70 -75 c0 -49 -3 -60 -17 -63 -24 -5 -41
42 -33 91 6 32 11 38 28 35 20 -3 22 -9 22 -63z"/>
<path d="M3590 790 c-16 -30 -4 -56 36 -79 23 -14 34 -27 32 -38 -5 -26 -35
-28 -43 -4 -8 26 -35 28 -35 3 0 -41 58 -66 92 -39 34 26 26 70 -17 97 -36 22
-47 50 -20 50 8 0 15 -4 15 -10 0 -5 9 -10 20 -10 23 0 24 4 10 31 -15 27 -75
26 -90 -1z"/>
<path d="M3729 765 c0 -25 -1 -66 -1 -92 -1 -27 4 -49 11 -51 7 -2 11 16 11
58 0 73 16 73 26 0 5 -40 10 -50 25 -50 14 0 22 12 30 45 6 25 14 45 18 45 3
0 6 -21 6 -47 0 -36 4 -48 15 -48 12 0 16 18 18 93 l3 92 -29 0 c-27 0 -30 -4
-36 -42 -10 -67 -22 -78 -35 -32 -6 21 -11 47 -11 57 0 11 -8 17 -25 17 -23 0
-25 -4 -26 -45z"/>
<path d="M3956 802 c-12 -20 -47 -174 -41 -180 4 -4 14 3 22 16 20 28 63 30
70 2 3 -11 12 -20 20 -20 16 0 12 34 -16 128 -16 53 -40 77 -55 54z m34 -89
c0 -14 -6 -23 -15 -23 -16 0 -20 26 -9 55 5 13 8 14 15 3 5 -7 9 -23 9 -35z"/>
<path d="M4062 718 l3 -93 48 -3 c37 -2 47 0 47 12 0 11 -10 16 -30 16 l-30 0
0 80 c0 74 -2 80 -20 80 -20 0 -21 -5 -18 -92z"/>
<path d="M4190 720 l0 -90 35 -1 c19 -1 40 -2 47 -3 6 -1 13 4 15 11 3 7 -9
13 -29 15 l-33 3 -3 78 c-2 59 -6 77 -17 77 -12 0 -15 -18 -15 -90z"/>
<path d="M4403 795 c-3 -9 -3 -28 0 -43 4 -21 1 -31 -14 -40 -48 -30 0 -102
59 -88 15 4 38 7 51 7 19 -1 22 3 17 22 -3 12 -6 30 -6 40 0 14 -5 17 -20 12
-22 -7 -41 22 -23 34 16 10 21 35 11 54 -11 22 -66 23 -75 2z m52 -23 c0 -18
-20 -15 -23 4 -3 10 1 15 10 12 7 -3 13 -10 13 -16z m-5 -92 c9 -16 8 -22 -4
-26 -21 -8 -36 3 -36 27 0 25 26 25 40 -1z"/>
<path d="M4612 718 c3 -104 20 -122 28 -31 6 65 15 61 25 -9 5 -36 12 -48 25
-48 16 0 40 55 40 93 0 9 3 18 8 20 4 3 7 -23 7 -56 0 -49 3 -62 15 -62 12 0
16 18 18 93 l3 92 -31 0 c-22 0 -30 -5 -31 -17 0 -10 -6 -36 -13 -58 l-12 -40
-17 58 c-15 50 -21 57 -43 57 l-25 0 3 -92z"/>
<path d="M4810 720 c0 -49 3 -90 8 -91 60 -5 92 -2 92 9 0 7 -13 12 -30 12
-27 0 -30 3 -30 30 0 26 4 30 26 30 31 0 28 23 -4 28 -33 5 -29 40 5 44 14 2
28 9 31 16 2 8 -11 12 -47 12 l-51 0 0 -90z"/>
<path d="M4942 718 l3 -93 45 2 c57 3 70 20 70 93 0 70 -18 90 -79 90 l-42 0
3 -92z m82 46 c11 -30 6 -91 -9 -104 -30 -25 -45 -4 -45 60 0 57 1 60 24 60
13 0 27 -7 30 -16z"/>
<path d="M5100 714 c0 -72 3 -95 13 -92 8 3 13 34 15 96 2 77 0 92 -13 92 -12
0 -15 -16 -15 -96z"/>
<path d="M5170 731 c0 -85 12 -111 51 -111 51 0 59 15 59 105 0 68 -3 85 -15
85 -11 0 -15 -18 -17 -77 -3 -70 -5 -78 -23 -78 -18 0 -20 8 -23 78 -2 59 -6
77 -17 77 -12 0 -15 -16 -15 -79z"/>
<path d="M5322 718 c3 -104 20 -122 28 -31 6 65 14 61 24 -9 12 -82 36 -77 60
12 l14 55 4 -60 c2 -45 7 -60 18 -60 12 0 16 18 18 93 l3 92 -30 0 c-28 0 -30
-3 -42 -57 l-12 -58 -19 58 c-17 49 -23 57 -44 57 -25 0 -25 0 -22 -92z"/>
<path d="M5580 721 c0 -98 2 -101 66 -101 24 0 34 5 34 15 0 10 -10 15 -30 15
-27 0 -30 3 -30 30 0 25 4 30 25 30 16 0 25 6 25 15 0 9 -9 15 -25 15 -18 0
-25 5 -25 20 0 16 7 20 30 20 20 0 30 5 30 15 0 11 -12 15 -50 15 l-50 0 0
-89z"/>
<path d="M5712 718 c3 -103 20 -125 28 -38 l5 55 24 -50 c45 -93 61 -84 61 36
0 72 -3 89 -15 89 -12 0 -15 -13 -16 -57 l0 -58 -27 58 c-18 39 -32 57 -44 57
-17 0 -18 -8 -16 -92z"/>
<path d="M5852 798 c3 -7 14 -14 26 -16 20 -3 22 -9 22 -84 0 -59 3 -79 13
-76 8 3 13 31 15 81 3 69 5 77 22 77 11 0 20 7 20 15 0 12 -13 15 -61 15 -44
0 -60 -3 -57 -12z"/>
<path d="M5992 718 l3 -93 48 -3 c37 -2 47 0 47 12 0 11 -10 16 -31 16 -27 0
-30 3 -27 28 2 19 9 28 26 30 31 5 29 32 -3 32 -18 0 -25 5 -25 20 0 16 7 20
30 20 20 0 30 5 30 15 0 11 -12 15 -50 15 l-51 0 3 -92z"/>
<path d="M6122 718 c2 -75 6 -93 18 -93 10 0 16 12 18 38 4 47 19 44 46 -6 24
-45 52 -51 41 -9 -3 15 -13 34 -21 43 -13 14 -13 18 1 29 18 15 20 61 3 78 -7
7 -34 12 -60 12 l-49 0 3 -92z m83 37 c0 -13 -8 -21 -22 -23 -19 -3 -23 1 -23
23 0 22 4 26 23 23 14 -2 22 -10 22 -23z"/>
<path d="M6280 715 c0 -78 2 -93 14 -89 8 3 16 20 18 37 2 27 8 33 31 35 33 4
51 34 42 70 -8 34 -21 42 -67 42 l-38 0 0 -95z m70 41 c0 -23 -22 -41 -34 -29
-3 4 -6 17 -6 30 0 16 6 23 20 23 14 0 20 -7 20 -24z"/>
<path d="M6422 718 c2 -62 7 -93 16 -96 8 -2 12 9 12 37 0 53 22 55 46 5 16
-34 39 -53 50 -41 3 3 -4 23 -15 45 -18 35 -19 42 -6 52 8 7 15 23 15 36 0 35
-26 54 -76 54 l-45 0 3 -92z m83 37 c0 -14 -8 -21 -27 -23 -24 -3 -28 0 -28
23 0 23 4 26 28 23 19 -2 27 -9 27 -23z"/>
<path d="M6580 720 c0 -73 3 -90 15 -90 12 0 15 17 15 90 0 73 -3 90 -15 90
-12 0 -15 -17 -15 -90z"/>
<path d="M6651 788 c-12 -32 1 -60 33 -76 32 -16 43 -39 27 -55 -10 -9 -17 -7
-32 12 -23 28 -45 16 -35 -17 9 -29 60 -38 91 -18 40 26 28 74 -25 101 -17 9
-30 22 -30 30 0 18 14 19 40 3 24 -15 38 -3 24 20 -6 10 -27 18 -48 20 -30 3
-38 -1 -45 -20z"/>
<path d="M6790 715 c0 -93 0 -95 23 -91 12 3 32 5 45 5 34 1 26 21 -8 21 -27
0 -30 3 -30 30 0 27 3 30 31 30 20 0 29 4 26 13 -2 6 -16 12 -30 11 -22 -1
-27 3 -27 22 0 20 5 24 30 24 20 0 30 5 30 15 0 11 -12 15 -45 15 l-45 0 0
-95z"/>
<path d="M6918 786 c-14 -33 -5 -52 37 -77 38 -23 44 -51 12 -57 -12 -3 -20 4
-24 17 -7 26 -33 28 -33 2 0 -39 53 -65 86 -43 42 28 31 79 -25 113 -17 10
-29 24 -26 29 8 13 35 13 35 0 0 -5 9 -10 20 -10 23 0 24 4 10 31 -16 30 -77
26 -92 -5z"/>
<path d="M3445 650 c-4 -6 -2 -17 5 -25 7 -9 8 -15 0 -20 -5 -3 -10 -11 -10
-17 0 -6 9 -3 20 7 22 20 23 56 3 62 -6 2 -14 -1 -18 -7z"/>
<path d="M4870 540 c0 -5 7 -10 15 -10 8 0 15 5 15 10 0 6 -7 10 -15 10 -8 0
-15 -4 -15 -10z"/>
<path d="M3260 492 c0 -4 14 -9 32 -10 34 -3 49 -17 41 -38 -4 -10 -9 -10 -23
-1 -11 6 -22 8 -26 4 -8 -8 45 -86 69 -101 26 -16 31 1 8 25 -27 29 -22 43 16
47 25 2 32 -1 37 -20 9 -37 7 -58 -9 -74 -23 -23 -2 -54 35 -54 17 0 30 5 30
10 0 6 -9 10 -20 10 -11 0 -20 7 -20 15 0 23 24 18 50 -10 27 -28 40 -32 40
-10 0 8 -16 25 -35 37 -34 22 -35 25 -35 87 0 49 4 67 18 77 14 11 0 13 -95
14 -62 0 -113 -4 -113 -8z m158 -34 c-2 -15 -11 -24 -25 -26 -13 -2 -23 0 -24
5 0 4 -2 16 -4 26 -2 13 4 17 27 17 25 0 29 -3 26 -22z"/>
<path d="M3510 490 c-8 -5 -10 -17 -7 -30 3 -12 1 -30 -5 -40 -14 -22 -4 -49
19 -56 10 -3 26 -10 35 -15 28 -15 38 -11 38 15 0 31 -16 42 -36 25 -11 -9
-18 -9 -26 -1 -33 33 67 48 103 16 20 -18 45 -18 53 1 9 23 36 18 38 -7 0 -13
1 -30 2 -38 1 -8 8 -15 16 -15 12 0 15 13 15 61 0 38 5 67 14 78 13 16 5 17
-116 15 -72 -1 -137 -5 -143 -9z m130 -25 c0 -13 -7 -21 -18 -22 -9 -1 -22 -3
-29 -5 -13 -4 -14 0 -7 27 7 28 54 28 54 0z m-90 -1 c0 -8 -4 -12 -10 -9 -5 3
-10 10 -10 16 0 5 5 9 10 9 6 0 10 -7 10 -16z m170 -9 c0 -18 -5 -25 -20 -25
-15 0 -20 7 -20 25 0 18 5 25 20 25 15 0 20 -7 20 -25z"/>
<path d="M3994 493 c4 -5 40 -8 79 -9 64 -1 72 -3 72 -20 0 -16 -7 -19 -46
-16 -62 4 -96 -22 -79 -59 13 -29 66 -64 74 -50 3 5 -5 16 -19 25 -34 22 -35
69 -2 64 15 -2 21 -9 19 -20 -4 -22 26 -24 34 -3 11 28 24 15 24 -25 0 -29 4
-40 15 -40 12 0 15 14 15 70 0 66 1 70 23 70 25 0 48 -39 40 -68 -8 -30 22
-45 73 -38 l47 6 -6 -35 c-5 -33 -4 -35 19 -29 18 5 24 2 24 -10 0 -26 -30
-31 -63 -12 -21 11 -33 14 -40 7 -18 -18 61 -45 97 -34 39 11 50 57 17 68 -19
6 -21 14 -21 76 0 55 3 69 15 69 8 0 15 5 15 10 0 6 -79 10 -217 10 -119 0
-213 -3 -209 -7z m366 -47 c0 -35 -31 -66 -65 -66 -25 0 -18 41 8 48 22 6 22
6 -3 12 -14 3 -26 14 -28 23 -3 14 5 17 42 17 46 0 46 0 46 -34z"/>
<path d="M4583 486 c10 -8 17 -27 17 -49 0 -30 7 -41 40 -68 23 -18 38 -39 36
-46 -3 -8 2 -13 14 -13 31 0 24 22 -20 65 -31 30 -40 47 -40 72 0 29 3 33 26
33 25 0 26 -2 21 -41 -4 -34 -3 -40 11 -37 12 2 18 15 20 41 3 40 -3 37 91 41
20 0 36 -4 38 -11 3 -9 -6 -13 -24 -13 -35 0 -53 -16 -53 -47 0 -24 26 -43 59
-43 12 0 21 -7 21 -15 0 -8 7 -15 15 -15 12 0 15 14 15 68 0 62 2 70 23 80 17
8 -20 11 -153 11 -148 0 -172 -2 -157 -13z m255 -70 c-2 -13 -10 -21 -23 -21
-23 0 -33 34 -14 45 20 13 40 -1 37 -24z"/>
<path d="M5065 492 c4 -4 12 -7 18 -7 19 0 21 -44 3 -51 -12 -5 -13 -10 -5
-25 12 -23 37 -25 45 -4 4 8 15 15 25 15 15 0 19 -7 19 -40 0 -33 3 -40 20
-40 17 0 19 8 22 78 l3 77 18 -34 c9 -19 14 -43 11 -54 -11 -35 47 -50 101
-25 19 9 28 9 37 0 7 -7 27 -12 45 -12 23 0 33 -5 33 -15 0 -8 7 -15 15 -15
12 0 15 14 15 69 0 68 0 69 29 73 24 4 30 0 34 -19 2 -12 -2 -28 -10 -34 -10
-9 -10 -15 -2 -25 15 -19 45 -18 53 1 3 8 12 15 21 15 11 0 15 -11 15 -40 0
-33 3 -40 20 -40 18 0 20 7 20 70 0 40 4 70 10 70 6 0 10 4 10 10 0 6 -112 10
-316 9 -174 0 -313 -4 -309 -7z m105 -38 c0 -17 -6 -24 -20 -24 -11 0 -21 5
-21 10 -1 6 -2 16 -3 23 -4 20 3 25 24 20 13 -3 20 -14 20 -29z m220 0 c0 -15
-6 -24 -16 -24 -9 0 -25 -11 -36 -25 -24 -31 -58 -34 -58 -5 0 13 7 20 20 20
30 0 24 18 -7 22 -18 2 -29 10 -31 22 -3 13 0 17 10 13 8 -3 30 -2 49 2 48 10
69 3 69 -25z m70 -13 c0 -47 -33 -73 -59 -46 -15 15 -15 17 2 26 9 6 17 20 17
33 0 28 8 36 26 29 8 -3 14 -20 14 -42z m170 13 c0 -17 -6 -24 -20 -24 -14 0
-20 7 -20 23 0 13 3 26 6 30 12 12 34 -6 34 -29z"/>
<path d="M5826 491 c5 -6 36 -11 69 -13 46 -2 61 -7 63 -19 2 -11 -7 -21 -25
-27 l-28 -10 27 -1 c30 -1 48 -35 29 -54 -16 -16 -42 2 -66 46 -20 37 -45 50
-45 23 0 -24 45 -81 72 -90 38 -14 78 6 78 38 0 14 -4 27 -8 30 -4 3 -6 20 -4
38 l4 33 64 -3 c62 -4 83 -22 24 -22 -38 0 -42 -8 -26 -55 17 -48 44 -62 91
-48 29 9 35 9 35 -3 0 -8 7 -14 15 -14 12 0 15 14 15 70 l0 70 29 0 c34 0 50
-34 23 -49 -13 -8 -14 -12 -3 -25 17 -20 47 -21 55 -1 3 8 12 15 21 15 11 0
15 -11 15 -40 0 -29 4 -40 15 -40 11 0 15 13 17 48 0 26 1 56 2 67 0 11 7 25
16 32 12 10 -47 12 -284 13 -189 0 -296 -4 -290 -9z m524 -31 c0 -23 -4 -30
-20 -30 -26 0 -28 46 -2 53 9 3 18 5 20 6 1 0 2 -12 2 -29z m-170 -19 c0 -44
-26 -71 -68 -71 -32 0 -26 32 8 41 23 6 22 7 -7 8 -43 1 -47 31 -4 31 16 0 31
6 35 15 3 8 12 15 21 15 11 0 15 -11 15 -39z"/>
<path d="M740 410 c-6 -11 -10 -56 -8 -102 3 -69 6 -83 20 -86 15 -3 18 8 20
82 2 48 7 86 13 87 6 0 19 -34 30 -76 20 -75 34 -95 67 -95 20 0 42 39 52 90
11 52 27 90 37 84 5 -3 9 -43 9 -90 0 -77 2 -84 20 -84 19 0 20 7 20 93 0 101
-7 117 -51 117 -36 0 -57 -30 -65 -92 -4 -26 -12 -56 -20 -65 -14 -20 -12 -23
-34 57 -20 77 -32 95 -67 98 -24 2 -34 -2 -43 -18z"/>
<path d="M1068 416 c-23 -17 -23 -69 -1 -87 9 -8 43 -16 77 -19 43 -4 62 -9
63 -20 5 -29 -14 -40 -85 -46 -98 -9 -78 -28 23 -22 82 4 105 18 105 62 0 40
-17 51 -87 56 -65 5 -68 6 -68 30 0 24 3 25 68 28 51 2 67 6 67 17 0 20 -137
21 -162 1z"/>
<path d="M1292 418 c-8 -8 -12 -46 -12 -106 0 -84 2 -93 18 -90 14 3 17 17 20
91 1 48 6 87 11 87 4 0 18 -38 31 -85 19 -73 27 -86 47 -91 26 -7 63 19 63 44
0 27 32 122 41 122 5 0 9 -39 9 -86 0 -83 1 -85 23 -82 21 3 22 9 25 87 3 94
-10 121 -58 121 -31 0 -53 -36 -65 -105 -12 -71 -15 -77 -31 -64 -8 6 -14 23
-14 37 0 30 -20 102 -33 120 -12 15 -59 16 -75 0z"/>
<path d="M1602 418 c-7 -7 -12 -44 -12 -95 0 -71 3 -84 19 -93 25 -13 158 -13
166 0 4 6 -15 10 -49 10 -72 0 -86 6 -86 41 0 27 1 28 60 31 33 2 60 8 60 13
0 6 -27 11 -60 13 -59 3 -60 3 -60 32 l0 30 65 0 c51 0 65 3 65 15 0 12 -15
15 -78 15 -47 0 -83 -5 -90 -12z"/>
<path d="M3796 334 c-8 -22 -8 -24 8 -24 12 0 26 20 26 36 0 12 -29 2 -34 -12z"/>
</g>
</svg>
